<?xml version="1.0" standalone="no"?><!DOCTYPE svg PUBLIC "-//W3C//DTD SVG 1.1//EN" "http://www.w3.org/Graphics/SVG/1.1/DTD/svg11.dtd"><svg t="1522135376771" class="icon" style="" viewBox="0 0 1130 1024" version="1.1" xmlns="http://www.w3.org/2000/svg" p-id="917" xmlns:xlink="http://www.w3.org/1999/xlink" width="220.703125" height="200"><defs><style type="text/css"></style></defs><path d="M788.65210719 577.98723494v3.94250296h10.6219501v17.79013676h6.12554168v-17.79013676h10.62194962v-3.94250296z m-199.82950573 0H561.32282899v3.94250296h10.62195011v17.79013676h6.22328949v-17.79013676h10.75228066z m-40.14184797 15.86775965c0 1.30330657-0.74940158 1.95496035-2.24820372 1.95495985h-11.92525671c-1.49880263 0-2.24820425-0.65165328-2.24820422-1.95495985v-15.86775965h-6.22328995v15.86775965a5.31097507 5.31097507 0 0 0 1.88979482 4.20316407 6.51653387 6.51653387 0 0 0 4.52899122 1.62913319h15.80259415a6.51653387 6.51653387 0 0 0 4.5289907-1.62913319 5.31097507 5.31097507 0 0 0 1.85721208-4.20316407v-15.86775965h-6.09295893z m-35.48252568-15.86775965h-22.3842935v21.73263972h22.3842935a6.51653387 6.51653387 0 0 0 4.52899072-1.62913322 5.34355783 5.34355783 0 0 0 1.88979481-4.20316459v-10.03546184a5.31097507 5.31097507 0 0 0-1.95496034-4.13799858 6.51653387 6.51653387 0 0 0-4.46382519-1.72688149z m0.32582664 15.86775965c0 1.30330657-0.74940158 1.92237757-2.24820423 1.92237709h-14.30379148v-13.88021659h14.30379148a2.37853478 2.37853478 0 0 1 1.53138541 0.5864878 1.72688149 1.72688149 0 0 1 0.71681882 1.36847212z m-54.99954443-14.04313034a5.34355783 5.34355783 0 0 0-1.95496036 4.13799902v10.03546188a5.31097507 5.31097507 0 0 0 1.8897948 4.20316408 6.51653387 6.51653387 0 0 0 4.52899125 1.6291337h21.24389971v-3.90992019h-19.32152262c-1.49880263 0-2.24820425-0.65165328-2.24820423-1.95496035v-2.99760533h21.56972685v-4.00766847h-21.56972685v-2.96502256a1.69429873 1.69429873 0 0 1 0.71681884-1.36847207 2.37853478 2.37853478 0 0 1 1.53138539-0.58648826h19.32152262v-3.94250297h-21.24389971a6.51653387 6.51653387 0 0 0-4.46382569 1.72688152z m149.88027521-1.72688154h-7.42884872c-3.25826692 0-5.3761401 1.95496035-6.51653383 5.86488059l-4.1054158 15.86775963h6.35362001l4.1054163-15.86775963a2.24820425 2.24820425 0 0 1 2.24820422-1.95496037h3.2582669a2.28078698 2.28078698 0 0 1 2.24820424 1.9875431c0.35840937 1.30330657 1.92237757 7.42884825 2.11787317 8.08050154h-9.70963521l-0.94489717 4.00766848h11.50168174l1.0100627 3.74700688h6.51653383l-4.13799904-15.86775963q-1.59655094-5.96262834-6.48395105-5.96262836z m112.05179701 1.72688154a5.27839232 5.27839232 0 0 0-1.95496033 4.13799902v10.03546188a5.31097507 5.31097507 0 0 0 1.8897948 4.20316408 6.51653387 6.51653387 0 0 0 4.52899072 1.6291337h21.27648252v-3.90992019h-19.32152214c-1.49880263 0-2.28078698-0.65165328-2.280787-1.95496035v-2.99760533h21.56972688v-4.00766847h-21.56972688v-2.96502256a1.75946427 1.75946427 0 0 1 0.7168188-1.36847207 2.44370032 2.44370032 0 0 1 1.5639682-0.58648826h19.32152214v-3.94250297h-21.40681305a6.51653387 6.51653387 0 0 0-4.30091238 1.72688152z m-14.95544527-1.72688154h-2.50886532c-3.25826692 0-5.3761401 1.95496035-6.51653383 5.86488059l-0.32582664 1.2707238-2.2807865 8.73215529c-0.19549611 0.68423604-0.52132273 1.49880263-0.97748042 1.49880266s-0.78198385-0.78198385-0.97747994-1.49880266l-2.2807865-8.73215529-0.32582713-1.2707238c-1.01006269-3.9099202-3.25826692-5.86488057-6.51653334-5.86488057h-2.54144809a6.51653387 6.51653387 0 0 0-4.52899125 1.66171599 5.34355783 5.34355783 0 0 0-1.88979482 4.20316458v15.86775963h6.12554168v-15.8351769c0-1.01006269 0.4235749-1.85721206 1.33588981-1.85721205s1.27072431 0.84714939 1.56396771 1.82462932l2.28078699 8.73215527 0.32582661 1.23814105q1.53138542 5.83229779 6.32103777 5.86488053h1.95495985q4.82223511 0 6.51653386-5.86488053l0.32582664-1.23814105 2.28078697-8.73215527c0.26066112-1.01006269 0.65165328-1.82462931 1.5639682-1.82462932s1.33588933 0.84714939 1.33588931 1.85721205v15.8351769h6.12554169v-15.86775963a5.34355783 5.34355783 0 0 0-1.88979483-4.20316458 6.51653387 6.51653387 0 0 0-4.4638257-1.75946378z m-44.11693317 15.83517691a1.72688149 1.72688149 0 0 1-1.92237709 1.95496035c-1.17297602 0-1.79204654-0.68423604-2.15045643-1.92237758l-2.2807865-8.73215529-0.32582666-1.27072383c-1.04264541-3.9099202-3.25826692-5.86488057-6.51653382-5.86488056h-3.71442412a6.51653387 6.51653387 0 0 0-4.52899123 1.66171601 5.34355783 5.34355783 0 0 0-1.85721204 4.20316455v15.86775966h6.09295888v-15.8351769c0-1.20555878 0.52132273-1.95496035 1.92237762-1.95496033s1.79204654 0.68423604 2.15045641 1.92237757l2.28078649 8.7321553 0.32582664 1.23814105q1.53138542 5.89746282 6.51653385 5.86488053h3.7144241a6.51653387 6.51653387 0 0 0 4.52899123-1.62913366 5.34355783 5.34355783 0 0 0 1.88979432-4.2031641v-15.86775968h-6.09295889z m-35.84093512 5.89746331h6.09295891v-21.7326402h-6.09295891z m150.43418072-5.89746331a1.72688149 1.72688149 0 0 1-1.92237758 1.95496035c-1.20555878 0-1.79204654-0.68423604-2.11787363-1.92237758l-2.28078654-8.73215529-0.32582662-1.27072383c-1.04264541-3.9099202-3.25826692-5.86488057-6.51653383-5.86488056h-3.71442414a6.51653387 6.51653387 0 0 0-4.52899119 1.66171601 5.34355783 5.34355783 0 0 0-1.88979485 4.20316455v15.86775966H758.77380042v-15.8351769c0-1.20555878 0.52132273-1.95496035 1.92237709-1.95496033s1.79204654 0.68423604 2.15045644 1.92237757l2.2807865 8.7321553 0.35840941 1.23814105c1.01006269 3.9099202 3.25826692 5.86488057 6.51653382 5.86488053h3.71442411a6.51653387 6.51653387 0 0 0 4.52899071-1.62913366 5.34355783 5.34355783 0 0 0 1.88979485-4.2031641v-15.86775968h-6.0929589zM547.63810809 458.08301475c0-31.44227493-11.56684727-51.48061637-25.25156778-64.25302246a96.28178565 96.28178565 0 0 0-30.43221275 67.44612387v2.86727474a96.21662013 96.21662013 0 0 0 23.72018281 63.53620366c16.32391687-12.15333554 32.12651098-33.26690471 31.96359772-69.59657981zM370.64905301 416.70302573a46.03931081 46.03931081 0 0 0 46.03931031-46.03931078v-1.82462928H369.86706865v47.86394006z" fill="#B7B6B7" p-id="918"></path><path d="M430.56858034 463.39398981v-39.09920252h14.01054759a99.47488704 99.47488704 0 0 1 21.60230915 1.88979484 109.86875831 109.86875831 0 0 0 14.89027924-53.76140291 108.85869561 108.85869561 0 0 0-18.60470335-2.18303872c-11.33876843-0.71681882-24.95832387-1.30330657-33.82081023-1.30330704h-8.47149365v1.82462979a49.52565604 49.52565604 0 0 1-49.52565608 49.52565606h-0.78198436v60.86442449h0.78198436a109.90134108 109.90134108 0 0 0 59.91952733-17.75755399z" fill="#B7B6B7" p-id="919"></path><path d="M444.57912793 427.68338478h-10.49161956v33.36465303a111.00915156 111.00915156 0 0 0 30.17155114-31.76810209 100.55011525 100.55011525 0 0 0-19.67993158-1.59655094zM366.3807234 420.15678873A49.52565604 49.52565604 0 1 1 419.91404747 365.51565374h8.7321553c8.99281641 0 22.61237181 0.58648825 34.0163058 1.30330653 3.7470069 0.26066112 6.94010828 0.4235749 10.00287959 0.74940108a77.48158571 77.48158571 0 0 1 8.3737459 1.33588984 110.39008103 110.39008103 0 1 0-114.65841064 112.05179702zM519.74734391 391.48404026a90.05849571 90.05849571 0 0 0-28.21659081-15.99809021c-2.60661364-0.94489715-4.91998289-1.66171599-7.03785651-2.28078698a113.38768635 113.38768635 0 0 1-14.85769698 53.79398567 28.34692182 28.34692182 0 0 1 20.42933362 18.93053048 99.89846149 99.89846149 0 0 1 29.68281068-54.44563896zM489.05447008 475.90573426c-8.53665918 20.59224645-33.88597526 19.9080104-47.86393958 19.90801042h-10.62195016V467.4994061a113.35510357 113.35510357 0 0 1-59.91952733 17.00815293h-0.78198432v115.17973286h60.70151165v-52.1322692h16.29133411a143.3637414 143.3637414 0 0 0 38.48013149-4.88740063 98.59515491 98.59515491 0 0 0 27.3694419-12.87015385 99.60521757 99.60521757 0 0 1-23.6550178-53.89173395zM684.97405604 464.24113918a96.57502954 96.57502954 0 0 0-57.54099252-88.33161468c-0.19549611 2.28078698-0.2932439 4.59415625-0.32582666 6.94010876v97.74800556h57.93198471zM623.5557261 480.49989053v-31.01870052H550.79862716c0.19549611 2.80210972 0.32582666 5.70196722 0.32582663 8.66699027v0.55390498a110.06425441 110.06425441 0 0 1-2.08529089 21.89555353zM543.3046134 417.55017511a93.44709317 93.44709317 0 0 1 6.87494274 25.64255991 42.35746895 42.35746895 0 0 1 73.4087522-1.04264544V382.78446774c0-2.41111754 0-4.82223511 0.35840941-7.20076987v-1.14039327a96.64019458 96.64019458 0 0 0-99.05131211 17.00815291 78.52423117 78.52423117 0 0 1 18.40920776 26.0987176z m76.27602695 75.39629481a42.35746895 42.35746895 0 0 1-71.09538293-9.77480026 85.07334727 85.07334727 0 0 1-7.65692708 20.72257702 79.9578683 79.9578683 0 0 1-22.80786793 26.5548748 96.57502954 96.57502954 0 0 0 162.58751625-37.372321z" fill="#B7B6B7" p-id="920"></path><path d="M816.02154859 480.49989053V382.32831055a94.48973863 94.48973863 0 0 0-188.29524119-10.1006274l1.04264544 0.45615719a100.19170585 100.19170585 0 0 1 56.13993771 65.16533736V383.92486097a36.62291945 36.62291945 0 0 1 73.24583886 0v96.57502954zM422.39033054 638.88424219h-20.16867202v122.77149493h13.71730372v-39.09920202h5.83229773v39.09920202h13.71730326v-111.17206489c0.09774781-8.34116311-6.97269104-11.59943005-13.09823269-11.59943002z m-0.52132276 69.72691084h-5.99521111v-21.56972688h5.8974633z m0-35.38477792h-5.99521111v-20.55966417s5.99521111-1.49880263 5.99521111 4.43124293zM331.41951996 713.8243798h-13.68472097a30.59512555 30.59512555 0 0 1-0.39099168 5.53905391H260.25897198v13.81505102h50.92671091a26.06613484 26.06613484 0 0 1-5.14806174 4.69190453 66.89221837 66.89221837 0 0 1-26.42454426 9.28606031c-4.43124293 0.71681882-8.43891094 1.1078105-11.2736029 1.3358898s-3.87733745 0.19549611-4.30091237 0.19549561v13.81505152c0.5539055-0.19549611 30.17155111 0.19549611 49.88406549-13.32631107a40.89124903 40.89124903 0 0 0 10.49161902-10.915194 65.16533686 65.16533686 0 0 0 21.53714418 16.2913341c14.40153927 6.97269104 32.87591257 7.10302159 38.25205261 7.20076989h1.30330706v-13.81505155h-1.07522823c-4.39866015 0-22.48204128-0.65165328-32.38717254-5.76713223a59.85436229 59.85436229 0 0 1-13.42405936-8.89506862h50.24247484v-13.81505152H331.15885883a41.64065013 41.64065013 0 0 0 0.26066112-5.60421895zM278.7007625 650.35334167h85.88791388c5.27839232 0 5.99521111 1.33588933 5.9952111 5.8974628v55.7815288h13.71730373v-64.22043971c0-7.85242316-4.98514841-11.24102061-13.03306768-11.24102065H333.63514141l5.93004556-11.79492609h-14.82511415l-6.80977775 11.79492609H264.98345878v75.46146036h13.71730374z m53.01200131 59.3004568l0.29324438-18.37662498 16.29133409 19.06086105h18.34404226l-18.37662503-21.17873472h15.80259414v-13.81505151h-15.24868862l11.99042219-19.54960102h-16.29133457l-12.60949275 19.32152216v-20.3641676h-13.71730321v20.39675037l-13.71730373-19.35410493h-17.92046729l14.43412203 19.54960102H285.96669741v13.81505151h16.29133411l-17.52947563 21.17873472h19.09344379l14.14087815-18.66986938v17.98563331z m130.13517816-70.80213905h-20.23383706v122.77149496h13.71730325v-39.09920205h5.99521107v39.09920202h13.71730372v-111.13948214c0-8.34116311-7.07043882-11.59943005-13.22856375-11.59943002z m-0.52132274 69.72691085h-5.99521111v-21.56972638h5.99521109z m-2e-8-35.38477789h-5.99521105v-20.55966421s5.99521111-1.49880263 5.99521107 4.43124297z m56.40059932 22.80786791h-23.94826118v-30.43221274l10.45903631 19.54960151h13.39147707v4.43124293h13.749886v-40.30476126s0.94489715-10.49161909-13.42405934-10.49161911h-7.65692711l4.26832961-12.31624883h-14.3363742l-4.56157353 12.31624883h-15.57451575v71.25829626h31.7355193c5.79971502 0 5.99521111 1.04264541 5.99521062 5.08289622v23.94826118c0 5.27839232-0.26066112 8.92765138-7.16818662 8.92765137h-25.34931654v13.81505103h32.58266865a13.68472095 13.68472095 0 0 0 13.71730374-14.14087766v-39.06661975c-0.13033056-9.51413914-2.83469199-12.51174493-13.88021703-12.51174494z m-23.94826118-43.56302771h17.62722344c5.60421894 0 6.22328946 0.26066112 6.22328994 5.79971503v23.81793064l-13.03306766-23.75276561h-10.81744572z m322.37292228 1.30330658v-13.8150515h-57.08483534l3.45376302-11.11069009h-14.36895702l-3.45376294 11.11069009h-57.15000037v13.8150515h15.05319251l-7.13560435 25.67514267h103.15672886s10.29612347-0.68423604 10.23095748-10.62194962v-10.75228069h-15.63968081v7.55917881h-78.55681345l2.63919589-11.63201234z m-22.80786792 32.35458981h-97.22668278v74.25590158h13.71730319v-19.97317594h85.00818225v2.47628305c-0.2932439 3.51892804 0.8145666 3.97508573-6.94010827 3.97508525h-16.58457848v13.81505151h25.87063877c8.43891094 0 11.40393396-4.30091236 11.40393396-13.58697265v-47.24486956s0.71681882-13.65213819-15.08577532-13.6521377z m1.3684721 40.53283967h-84.74752113v-6.0277939h84.87785169z m0-19.84284539h-84.74752113v-6.90752552h78.42648339c8.53665918 0.06516553 6.45136829 7.00527379 6.4513683 7.00527378z m-281.09068158 15.63968129h-33.56014859v13.78246874h33.56014859z m139.68190005 6.51653334c0.39099217-0.58648825 0.78198385-1.20555878 1.10781048-1.79204655 12.41399665-21.40681308 14.07571264-45.87639746 14.10829588-59.95211007v-7.95017096h4.88740012v-13.61955542h-36.59033667c0.97747995-8.34116311 1.1078105-14.33637425 1.10781049-14.49928757l-13.7173032-0.32582664s0 4.36607739-0.78198436 10.85002847a157.11362738 157.11362738 0 0 1-3.87733743 24.63249722 60.18018891 60.18018891 0 0 1-5.79971503 12.1859183v-10.68711564h-10.26354073a138.54150629 138.54150629 0 0 0 15.80259465-28.90082683h-16.29133461l-1.72688148 3.87733744h-17.39914458v-12.05558725h-13.71730371v12.05558725h-22.57978908v13.8150515h22.57978908v11.20843789h-25.57739487v13.78246925h31.37710988c-1.88979485 1.98754265-5.63680166 5.96262834-7.88500592 8.1782498h-21.04840368v13.81505099h5.73454952a39.09920202 39.09920202 0 0 1-7.72209211 4.85481789v14.56445258a98.88839882 98.88839882 0 0 0 28.57500017-19.54960099h14.33637424l-10.75228068 9.77480075v10.45903629h-29.32440176v13.78246877h29.32440176v3.25826689c0 3.71442411 0 6.51653387-6.94010824 6.51653383H555.45794894v13.81505152h24.66507998c11.40393396 0 10.78486343-11.76234336 10.78486296-11.76234337v-11.53426454h21.14615194v-13.78246872h-20.85290757v-4.33349514l17.85530227-16.29133409v-13.71730373h-22.09104965c2.47628257-2.7369442 4.78965232-5.47388837 6.90752605-8.17824978h19.7450971v18.44179051a37.33973826 37.33973826 0 0 0 9.35122581-9.54672192 117.29760656 117.29760656 0 0 0 13.03306766 38.02397432l0.32582665 0.48873995a145.77485895 145.77485895 0 0 1-25.0234894 18.53953833v16.29133409c1.20555878-0.74940158 20.33158534-10.10062738 33.36465252-23.68760007a85.95307941 85.95307941 0 0 0 30.69287338 21.66747469v-15.50935027c-9.22089529-4.69190404-13.97796483-6.67944716-21.9281358-17.00815288z m-66.27314784-61.15766886h-3.25826693v-11.20843789h10.42645405c-1.98754265 3.29084969-4.36607739 7.10302159-7.16818712 11.20843789z m57.96456747 48.58075888a110.29233276 110.29233276 0 0 1-7.36368322-22.80786792c-1.01006269-4.56157344-1.69429873-8.63440699-2.11787366-11.53426451s-0.58648825-4.69190404-0.58648773-4.69190457h-4.95256569a91.42696779 91.42696779 0 0 0 2.54144813-9.18831249c0.8145666-2.83469199 1.49880263-5.70196722 2.08529089-8.53665871h20.2664198V667.55699067c0.13033056 11.63201281-1.40105486 31.67035377-9.87254852 48.64592391z" fill="#B7B6B7" p-id="921"></path></svg>